<svg width="75" height="22" viewBox="0 0 75 22" fill="none" xmlns="http://www.w3.org/2000/svg">
<circle cx="1.5" cy="4.5" r="1.5" fill="white"/>
<circle cx="9.5" cy="4.5" r="1.5" fill="white"/>
<circle cx="9.5" cy="12.5" r="1.5" fill="white"/>
<circle cx="1.5" cy="12.5" r="1.5" fill="white"/>
<path d="M42.128 6.6L39.32 15H38.06L35.768 8.292L33.476 15H32.192L29.384 6.6H30.62L32.888 13.428L35.252 6.6H36.356L38.672 13.464L40.988 6.6H42.128ZM45.2635 8.58C46.1435 8.58 46.8155 8.796 47.2795 9.228C47.7515 9.66 47.9875 10.304 47.9875 11.16V15H46.8955V14.16C46.7035 14.456 46.4275 14.684 46.0675 14.844C45.7155 14.996 45.2955 15.072 44.8075 15.072C44.0955 15.072 43.5235 14.9 43.0915 14.556C42.6675 14.212 42.4555 13.76 42.4555 13.2C42.4555 12.64 42.6595 12.192 43.0675 11.856C43.4755 11.512 44.1235 11.34 45.0115 11.34H46.8355V11.112C46.8355 10.616 46.6915 10.236 46.4035 9.972C46.1155 9.708 45.6915 9.576 45.1315 9.576C44.7555 9.576 44.3875 9.64 44.0275 9.768C43.6675 9.888 43.3635 10.052 43.1155 10.26L42.6355 9.396C42.9635 9.132 43.3555 8.932 43.8115 8.796C44.2675 8.652 44.7515 8.58 45.2635 8.58ZM44.9995 14.184C45.4395 14.184 45.8195 14.088 46.1395 13.896C46.4595 13.696 46.6915 13.416 46.8355 13.056V12.168H45.0595C44.0835 12.168 43.5955 12.496 43.5955 13.152C43.5955 13.472 43.7195 13.724 43.9675 13.908C44.2155 14.092 44.5595 14.184 44.9995 14.184ZM50.1193 6.096H51.2713V15H50.1193V6.096ZM53.4709 6.096H54.6229V15H53.4709V6.096ZM62.5705 11.856C62.5705 11.944 62.5625 12.06 62.5465 12.204H57.3865C57.4585 12.764 57.7025 13.216 58.1185 13.56C58.5425 13.896 59.0665 14.064 59.6905 14.064C60.4505 14.064 61.0625 13.808 61.5265 13.296L62.1625 14.04C61.8745 14.376 61.5145 14.632 61.0825 14.808C60.6585 14.984 60.1825 15.072 59.6545 15.072C58.9825 15.072 58.3865 14.936 57.8665 14.664C57.3465 14.384 56.9425 13.996 56.6545 13.5C56.3745 13.004 56.2345 12.444 56.2345 11.82C56.2345 11.204 56.3705 10.648 56.6425 10.152C56.9225 9.656 57.3025 9.272 57.7825 9C58.2705 8.72 58.8185 8.58 59.4265 8.58C60.0345 8.58 60.5745 8.72 61.0465 9C61.5265 9.272 61.8985 9.656 62.1625 10.152C62.4345 10.648 62.5705 11.216 62.5705 11.856ZM59.4265 9.552C58.8745 9.552 58.4105 9.72 58.0345 10.056C57.6665 10.392 57.4505 10.832 57.3865 11.376H61.4665C61.4025 10.84 61.1825 10.404 60.8065 10.068C60.4385 9.724 59.9785 9.552 59.4265 9.552ZM67.7461 14.628C67.5781 14.772 67.3701 14.884 67.1221 14.964C66.8741 15.036 66.6181 15.072 66.3541 15.072C65.7141 15.072 65.2181 14.9 64.8661 14.556C64.5141 14.212 64.3381 13.72 64.3381 13.08V9.588H63.2581V8.64H64.3381V7.248H65.4901V8.64H67.3141V9.588H65.4901V13.032C65.4901 13.376 65.5741 13.64 65.7421 13.824C65.9181 14.008 66.1661 14.1 66.4861 14.1C66.8381 14.1 67.1381 14 67.3861 13.8L67.7461 14.628ZM70.9629 15.072C70.4429 15.072 69.9429 15.004 69.4629 14.868C68.9829 14.724 68.6069 14.544 68.3349 14.328L68.8149 13.416C69.0949 13.616 69.4349 13.776 69.8349 13.896C70.2349 14.016 70.6389 14.076 71.0469 14.076C72.0549 14.076 72.5589 13.788 72.5589 13.212C72.5589 13.02 72.4909 12.868 72.3549 12.756C72.2189 12.644 72.0469 12.564 71.8389 12.516C71.6389 12.46 71.3509 12.4 70.9749 12.336C70.4629 12.256 70.0429 12.164 69.7149 12.06C69.3949 11.956 69.1189 11.78 68.8869 11.532C68.6549 11.284 68.5389 10.936 68.5389 10.488C68.5389 9.912 68.7789 9.452 69.2589 9.108C69.7389 8.756 70.3829 8.58 71.1909 8.58C71.6149 8.58 72.0389 8.632 72.4629 8.736C72.8869 8.84 73.2349 8.98 73.5069 9.156L73.0149 10.068C72.4949 9.732 71.8829 9.564 71.1789 9.564C70.6909 9.564 70.3189 9.644 70.0629 9.804C69.8069 9.964 69.6789 10.176 69.6789 10.44C69.6789 10.648 69.7509 10.812 69.8949 10.932C70.0389 11.052 70.2149 11.14 70.4229 11.196C70.6389 11.252 70.9389 11.316 71.3229 11.388C71.8349 11.476 72.2469 11.572 72.5589 11.676C72.8789 11.772 73.1509 11.94 73.3749 12.18C73.5989 12.42 73.7109 12.756 73.7109 13.188C73.7109 13.764 73.4629 14.224 72.9669 14.568C72.4789 14.904 71.8109 15.072 70.9629 15.072Z" fill="white"/>
</svg>
